<svg version="1.1" id="Uploaded to svgrepo.com" xmlns="http://www.w3.org/2000/svg" xmlns:xlink="http://www.w3.org/1999/xlink" x="0px" y="0px"
	 width="32px" height="32px" viewBox="0 0 32 32" style="enable-background:new 0 0 32 32;" xml:space="preserve">
<style type="text/css">
	.blueprint_een{fill:#111918;}
</style>
<path class="blueprint_een" d="M31,22h-5v-6h-4.655c-0.042-0.071-0.076-0.146-0.138-0.207l-4.5-4.5
	c-0.061-0.061-0.136-0.096-0.207-0.138V10H22c0.553,0,1-0.448,1-1V2c0-0.552-0.447-1-1-1H10C9.447,1,9,1.448,9,2v7
	c0,0.552,0.447,1,1,1h5.5v1.155c-0.071,0.042-0.146,0.076-0.207,0.138l-4.5,4.5c-0.061,0.061-0.096,0.136-0.138,0.207H6v6H1
	c-0.553,0-1,0.448-1,1v7c0,0.552,0.447,1,1,1h12c0.553,0,1-0.448,1-1v-7c0-0.552-0.447-1-1-1H7v-5h3.655
	c0.042,0.071,0.076,0.146,0.138,0.207l4.5,4.5C15.488,21.902,15.744,22,16,22s0.512-0.098,0.707-0.293l4.5-4.5
	c0.061-0.061,0.096-0.136,0.138-0.207H25v5h-6c-0.553,0-1,0.448-1,1v7c0,0.552,0.447,1,1,1h12c0.553,0,1-0.448,1-1v-7
	C32,22.448,31.553,22,31,22z M11,8V3h10v5H11z M12,29H2v-5h10V29z M16,19.586L12.914,16.5L16,13.414l3.086,3.086L16,19.586z M30,29
	H20v-5h10V29z M13,5h6v1h-6V5z M10,27H4v-1h6V27z M28,27h-6v-1h6V27z"/>
</svg>