<?xml version="1.0" encoding="iso-8859-1"?>
<!-- Generator: Adobe Illustrator 19.0.0, SVG Export Plug-In . SVG Version: 6.00 Build 0)  -->
<svg version="1.1" id="Layer_1" xmlns="http://www.w3.org/2000/svg" xmlns:xlink="http://www.w3.org/1999/xlink" x="0px" y="0px" viewBox="0 0 511.999 511.999" style="enable-background:new 0 0 511.999 511.999;" xml:space="preserve">
	<g>
		<g>
			<g>
				<path d="M481.387,106.674H323.51c-4.493,0-8.8,1.784-11.975,4.961l-14.879,14.879l-0.934-17.185
				c-1.472-27.089-24.691-47.955-51.798-46.461l-16.618,0.903l-0.039-0.735c-0.519-9.554-4.729-18.333-11.851-24.722
				c-7.125-6.391-16.312-9.629-25.863-9.103l-92.618,5.032c-19.719,1.073-34.893,17.991-33.823,37.711l0.039,0.735l-16.618,0.903
				c-13.123,0.712-25.183,6.493-33.958,16.277c-8.775,9.785-13.215,22.4-12.501,35.522l15.05,276.974
				c0.714,13.122,6.495,25.183,16.278,33.957c9.103,8.164,20.657,12.577,32.791,12.577c0.908,0,1.818-0.025,2.731-0.075l76.562-4.16
				l9.753,23.858c2.682,6.561,9.008,10.532,15.683,10.532c2.134,0,4.305-0.405,6.402-1.263c8.658-3.54,12.808-13.428,9.269-22.086
				l-5.308-12.986l28.268-1.536v11.042c0,16.881,13.733,30.614,30.613,30.614h243.22c16.88,0,30.613-13.733,30.613-30.614V137.288
				C512,120.407,498.267,106.674,481.387,106.674z M308.832,162.239v45.713h-45.713L308.832,162.239z M98.775,68.066l92.618-5.032
				c0.04-0.002,0.079-0.003,0.119-0.003c0.485,0,0.918,0.167,1.287,0.498c0.4,0.358,0.615,0.811,0.645,1.345l1.905,35.057v0.001
				c0.059,1.071-0.768,1.993-1.84,2.05l-92.618,5.032c-0.533,0.03-1.007-0.138-1.406-0.495s-0.615-0.81-0.645-1.342L96.935,70.12
				C96.877,69.046,97.703,68.123,98.775,68.066z M212.514,210.655c-3.176,3.176-4.961,7.484-4.961,11.975v184.632l-41.834,2.275
				l-47.187-115.429c-3.54-8.658-13.428-12.806-22.086-9.269c-8.658,3.54-12.808,13.428-9.269,22.086l42.743,104.558l-64.834,3.523
				c-4.088,0.219-8.019-1.162-11.067-3.895c-3.049-2.735-4.849-6.491-5.072-10.58l-15.05-276.976
				c-0.222-4.088,1.161-8.02,3.894-11.067c2.734-3.049,6.492-4.849,10.581-5.072l16.618-0.903l0.027,0.501
				c0.519,9.553,4.729,18.333,11.852,24.721c6.628,5.945,15.037,9.156,23.87,9.156c0.661,0,1.326-0.019,1.991-0.055l92.618-5.032
				c19.723-1.073,34.896-17.991,33.824-37.711v0.001l-0.027-0.5l16.617-0.903c0.282-0.015,0.561-0.023,0.84-0.023
				c8.075,0,14.857,6.34,15.299,14.499l2.582,47.521L212.514,210.655z M478.126,448.969H241.424V241.825h0.001h84.343
				c9.353,0,16.936-7.583,16.936-16.936v-84.343h135.422V448.969z" />
				<path d="M269.1,275.047c0,9.353,7.583,16.936,16.936,16.936h147.481c9.353,0,16.936-7.583,16.936-16.936
				c0-9.353-7.583-16.936-16.936-16.936H286.036C276.682,258.11,269.1,265.693,269.1,275.047z" />
				<path d="M433.517,308.495H286.036c-9.353,0-16.936,7.583-16.936,16.936s7.583,16.936,16.936,16.936h147.481
				c9.353,0,16.936-7.583,16.936-16.936S442.87,308.495,433.517,308.495z" />
				<path d="M433.517,358.879H286.036c-9.353,0-16.936,7.583-16.936,16.936s7.583,16.936,16.936,16.936h147.481
				c9.353,0,16.936-7.583,16.936-16.936S442.87,358.879,433.517,358.879z" />
			</g>
		</g>
	</g>
	<g></g>
	<g></g>
	<g></g>
	<g></g>
	<g></g>
	<g></g>
	<g></g>
	<g></g>
	<g></g>
	<g></g>
	<g></g>
	<g></g>
	<g></g>
	<g></g>
	<g></g>
</svg>