<?xml version="1.0" encoding="utf-8"?>
<!-- Generator: Adobe Illustrator 24.1.2, SVG Export Plug-In . SVG Version: 6.00 Build 0)  -->
<svg version="1.1" id="Layer_1" xmlns="http://www.w3.org/2000/svg" xmlns:xlink="http://www.w3.org/1999/xlink" x="0px" y="0px"
	 viewBox="0 0 1900 1100" style="enable-background:new 0 0 1900 1100;" xml:space="preserve">
<style type="text/css">
	.st0{fill:#11BDEF;}
</style>
<g>
	<g>
		<polygon class="st0" points="562.66,340.05 203.21,340.05 203.21,391.1 356.2,391.1 356.2,795.65 409.06,795.65 409.06,391.1 
			562.66,391.1 		"/>
		<path class="st0" d="M772.82,631.34c0,74.28-35.33,116.88-96.93,116.88c-55.39,0-88.46-43.47-88.46-116.28V464.01h-52.26v169.14
			c0,122.03,71.75,165.51,138.91,165.51c39.34,0,73.78-13.86,98.74-38.59v35.57h52.26V464.01h-52.26V631.34z"/>
		<path class="st0" d="M1102.68,334c-128.42,0-229.01,102.72-229.01,233.85c0,131.13,100.59,233.85,229.01,233.85
			c127.74,0,227.8-102.72,227.8-233.85C1330.48,436.72,1230.42,334,1102.68,334z M1102.08,748.83c-18.36,0-35.97-2.77-52.48-7.93
			l20.38-42.66c10.02,2.38,20.47,3.68,31.22,3.68c74.33,0,134.6-60.26,134.6-134.6s-60.26-134.6-134.6-134.6
			c-74.33,0-134.6,60.26-134.6,134.6c0,43.57,20.72,82.27,52.81,106.87l-19.81,41.45c-44.51-32.52-73.07-86.07-73.07-147.81
			c0-101.49,77.11-180.98,175.54-180.98s175.54,79.5,175.54,180.98C1277.62,669.33,1200.51,748.83,1102.08,748.83z M1015.05,567.33
			c0-47.57,38.57-86.14,86.14-86.14c47.57,0,86.14,38.57,86.14,86.14c0,47.57-38.57,86.14-86.14,86.14
			C1053.62,653.47,1015.05,614.9,1015.05,567.33z"/>
		<path class="st0" d="M1530.07,460.99c-39.95,0-73.99,13.4-98.74,37.96v-34.94h-52.26v331.63h52.26V628.32
			c0-74.28,35.33-116.88,96.93-116.88c55.39,0,88.46,43.47,88.46,116.28v167.93h52.26V626.5
			C1668.98,504.47,1597.22,460.99,1530.07,460.99z"/>
		<circle class="st0" cx="1101.19" cy="567.33" r="26.92"/>
	</g>
</g>
</svg>
