<?xml version="1.0" encoding="utf-8"?>

<svg version="1.1" id="Layer_1" xmlns="http://www.w3.org/2000/svg" xmlns:xlink="http://www.w3.org/1999/xlink" x="0px" y="0px" viewBox="0 0 866 1642" enable-background="new 0 0 866 1642" xml:space="preserve">
	<g>
		<path fill="#8EA2AD" d="M427.711,437.497l-0.338-4.783l-46.627,35.79c0,0,10.132,2.148,16.137,4.22
		c2.409-5.562,8.334-18.174,15.29-25.131C418.923,440.843,425.011,438.342,427.711,437.497z" />
		<path fill="#B0BFC8" d="M435.784,464.147c-2.902-4.749-7.123-13.191-7.123-13.191l-0.95-13.459
		c-2.7,0.844-8.789,3.346-15.538,10.096c-6.957,6.957-12.882,19.569-15.29,25.131c1.723,0.595,3.109,1.183,3.815,1.712
		c3.166,2.374,14.774,5.012,21.897,12.663c7.123,7.651,10.289,21.105,10.289,21.105l25.59-26.554
		C458.472,481.65,438.686,468.896,435.784,464.147z" />

		<rect x="316.805" y="529.309" transform="matrix(0.9675 -0.2527 0.2527 0.9675 -129.4102 100.8647)" fill="#E6E7E8" stroke="#FFFFFF" stroke-miterlimit="10" width="22.333" height="49.861" />

		<rect x="345.075" y="515.843" transform="matrix(0.77 -0.638 0.638 0.77 -263.0896 351.6375)" fill="#E6E7E8" stroke="#FFFFFF" stroke-miterlimit="10" width="22.333" height="49.861" />

		<rect x="367.415" y="496.001" transform="matrix(0.5029 -0.8643 0.8643 0.5029 -262.0746 586.1467)" fill="#E6E7E8" stroke="#FFFFFF" stroke-miterlimit="10" width="22.333" height="49.861" />

		<rect x="318.542" y="543.741" transform="matrix(0.9675 -0.2527 0.2527 0.9675 -131.2109 100.8446)" fill="#F1F1F2" width="16.902" height="34.998" />

		<rect x="350.869" y="524.283" transform="matrix(0.77 -0.638 0.638 0.77 -263.8093 354.6766)" fill="#F1F1F2" width="18.459" height="38.016" />

		<rect x="374.503" y="502.978" transform="matrix(0.5029 -0.8643 0.8643 0.5029 -260.2408 590.3791)" fill="#F1F1F2" width="17.351" height="36.95" />
		<path fill="#848D8C" d="M653.562,1574.8v7.519c0,0,20.973,14.642,40.759,11.872c19.786-2.77,16.224,5.54,22.556-4.353
		c6.332-9.893,20.182-58.962,26.117-68.459c5.936-9.497,20.182-26.909,20.182-26.909l27.7,75.583l9.893-4.353
		c0,0-12.267-31.658-12.267-41.946s1.979-55.005-1.187-58.962c-3.166-3.957-9.102-6.332-17.412-1.979
		c-8.31,4.353-46.695,47.882-46.695,47.882l-18.995,50.652L653.562,1574.8z" />
		<path fill="#7A7C7F" d="M546.718,1581.923c0,0-32.053,11.08-29.679,16.224c2.374,5.144,5.54,12.267,5.54,12.267
		s13.454,12.663,26.909,10.289c13.454-2.374,63.711-15.037,67.272-24.139c3.562-9.102,15.037-42.342,21.369-55.797
		c6.331-13.454,12.267-20.577,12.267-20.577l11.476,74l6.332-0.396c0,0,11.476-92.994,9.497-101.304
		c-1.979-8.31-13.85-12.267-13.85-12.267l-106.339,92.328c0,0-13.537-5.327-15.938-2.104
		C539.695,1572.968,546.718,1581.923,546.718,1581.923z" />
		<path fill="#C8AF9A" d="M507.888,808.659l-4.438,3.707l-111.097,26.906l49.648-28.692l54.182-10.073l6.132-4.332l-5.87-13.151
		c-10.107,3.989-18.607,7.392-19.375,7.853c-1.979,1.187-12.465,6.529-16.767,8.706c-4.302,2.176-10.183-1.583-10.183-1.583
		s-52.589,33.636-56.349,36.682c-3.759,3.046-14.246,1.702-16.027,1.702c-1.781,0-2.283-2.321-1.4-3.405
		c-0.883,1.084-0.38,3.405,1.4,3.405c1.781,0,12.267,1.344,16.027-1.702c3.759-3.046,56.349-36.682,56.349-36.682
		s5.881,3.759,10.183,1.583c4.302-2.176,14.789-7.519,16.767-8.706c0.768-0.461,9.268-3.864,19.375-7.853l-74.38-166.633H158.253
		L30.04,896.537h517.074L507.888,808.659z" />
		<polygon fill="#808184" points="496.184,800.509 442.002,810.581 392.354,839.273 503.45,812.367 507.888,808.659 502.316,796.177 
			" />
		<polygon fill="#6D6E70" points="313.638,667.019 302.559,528.517 448.975,416.133 431.563,386.85 255.864,503.983 244.784,667.019 
		244.784,727.169 453.724,727.169 453.724,667.019 	" />

		<rect x="327.048" y="473.275" transform="matrix(0.5859 0.8104 -0.8104 0.5859 556.7913 -61.6997)" fill="#6D6E70" width="23.433" height="81.322" />
		<rect x="309.021" y="609.297" fill="#6D6E70" width="105.922" height="57.722" />
		<rect x="339.138" y="609.297" fill="#F1F1F2" width="101.923" height="14.193" />

		<rect x="350.132" y="428.091" transform="matrix(0.7972 -0.6037 0.6037 0.7972 -201.3784 313.5184)" fill="#E6E7E8" width="31.658" height="56.811" />
		<path fill="#FFFFFF" stroke="#000000" stroke-miterlimit="10" d="M804.331,1175.123c-14.246-41.155-57.775-199.443-63.315-256.426
		c-5.733-58.972-14.363-133.669-14.246-140.48c0.503-29.16,1.361-56.195,1.361-56.195l22.52-13.182l24.717-27.463l-10.436-43.218
		l-38.449-104.536L691.33,481.65l2.197-16.137c0,0,3.296-19.224-23.069-14.83c-10.165,1.694-38.908,13.618-38.908,13.618
		s-25.826,12.909-31.399,20.436c-10.477,14.152-24.717,27.464-24.717,27.464l11.535,11.535l-28.562,19.386
		c8.239,9.816,11.916,32.117,11.916,32.117l-38.247,84.658l-45.112-132.6c0,0-3.166-19.788-16.62-12.845
		c-13.454,6.943-9.497,71.984-9.497,71.984l30.866,120.947c0,0,11.872,25.326,18.995,28.492c2.297,1.021,5.665,2.618,9.492,4.234
		c0,0-22.653,13.995-16.219,12.386c1.486-0.372-8.201,12.296-8.45,30.893c16.082-6.353,36.812-14.411,36.812-14.411
		s-20.73,8.058-36.812,14.411c-0.067,4.966,0.532,10.349,2.205,16.026l37.113-26.216l4.783,8.942l-36.18,30.227
		c12.87,20.461,36.048,18.315,44.059,17.293c3.531-0.451,23.966-18.318,27.679-18.788c0,0-37.288,414.16-24.117,412.529
		c1.462-0.181,29.357-23.715,41.155-22.952c6.01,0.389,7.123,25.327,7.123,25.327c12.927,0.041,22.553-0.532,41.634-2.37
		C683.411,1219.319,821.315,1224.189,804.331,1175.123z" />
		<path fill="#B0BFC8" d="M534.847,773.197l-37.113,26.216c0.703,2.386,1.575,4.817,2.684,7.295c0.924,2.063,1.945,3.932,3.032,5.659
		l36.18-30.227L534.847,773.197z" />
		<path fill="#929497" d="M467.975,520.931c-0.004,0,0.001-0.005,0.004-0.008c2.37-1.907,4.078-9.027,9.884-4.278
		c4.361,3.567,3.625,30.297,1.187,43.529c-2.77,15.037-9.578,36.285-13.454,29.283c-5.025-9.078-2.626-42.578,0-56.192
		C467.975,520.931,468.131,520.937,467.975,520.931z" />
		<path fill="#577482" d="M448.515,491.863l-9.679,10.044l3.166,4.648l12.057-6.974C450.788,493.589,448.515,491.863,448.515,491.863
		z" />
		<path fill="#DCB5B2" d="M478.654,540.773c-4.494-10.596-18.437-30.121-24.93-42.019l-11.722,7.801l34.005,66.655
		C476.007,573.21,482.743,550.414,478.654,540.773z" />
		<path fill="#DCB5B2" d="M481.008,331.977c0,0-9.346-33.768,10.704-53.818c20.05-20.05,47.486-52.763,109.219-52.763
		s90.224,8.442,109.746,48.542s10.552,74.395,0,88.114c-10.553,13.718-31.044,41.633-46.431,49.906
		c-15.433,8.298-22.707,35.391-17.016,48.892c1.366,3.242,10.594,14.001,10.594,14.001s-16.842,49.434-36.799,43.606
		c-24.699-7.213,11.564-36.807,11.564-36.807s-6.595-19.218-8.706-34.651c-1.373-10.042-7.519-26.744-7.519-26.744
		s-60.281,27.8-68.723,28.327s-52.235-20.05-62.26-38.517s-16.015-47.131-13.548-56.542
		C474.301,344.112,481.008,331.977,481.008,331.977z" />
		<path fill="#5A4A42" d="M464.804,260.747c0,0,25.326-50.124,62.788-52.763c37.461-2.638,33.24,0,33.24,0s3.693-9.497,18.995-7.914
		c15.301,1.583,20.05,8.442,20.05,8.442l4.749-3.166c0,0,16.884-3.166,30.075,4.749c13.191,7.914,23.216,15.301,23.216,15.301
		s53.224,15.037,62.721,45.112c9.497,30.075,10.091,93.998-31.064,128.913s-39.245,25.602-39.245,25.602s-4.06-7.282-3.493-22.05
		c0.528-13.729-3.166-30.808-3.166-30.808s20.554-19.277,22.556-25.283c2.242-6.727,9.629-35.483-7.255-39.176
		s-25.854,25.854-25.854,25.854s-13.191-33.768-19.522-37.461c-6.332-3.693-6.332-3.693-6.332-3.693l31.13,1.055l-33.24-3.693
		l-5.276-5.804l19.654-2.374l-22.793-0.264l-6.886-1.583c0,0,10.553-21.633,17.939-29.019s17.412-13.718,17.412-13.718
		s-23.713,7.387-32.17,19.522c-8.457,12.135-11.095,18.995-11.095,18.995s-9.497-7.387-22.16-8.97s-34.296-5.276-54.345,10.553
		c-20.05,15.829-30.602,25.854-30.602,25.854s11.608-27.437,27.964-41.155c16.356-13.718,33.24-20.05,33.24-20.05
		s-16.356,1.583-29.547,11.08s-32.185,32.185-32.185,32.185s9.497-29.547,24.271-37.989c14.774-8.442,31.658-16.356,31.658-16.356
		s-17.939,0.528-30.075,7.914c-12.135,7.387-28.876,26.381-28.876,26.381L464.804,260.747z" />
		<path fill="#5A4A42" d="M762.735,228.229c0,0,26.365-51.082,7.69-75.799c-18.675-24.717-58.222-38.998-84.587-9.887
		s-17.063,86.87-17.063,86.87l-15.613-7.387c0,0-90.91-64.103-34.885-153.634s179.062-24.717,179.062-24.717
		s-73.053-19.224-92.826-4.943c-19.774,14.281-19.774,14.281-19.774,14.281s24.168-23.619,62.067-8.788s65.912,27.463,87.334,63.166
		c21.422,35.702-10.985-4.943-26.914-14.281c-15.929-9.338-47.237-14.281-47.237-14.281s46.688,10.367,64.814,46.379
		c18.126,36.012-6.591,84.897-6.591,84.897s3.845-34.055,0-35.702c-3.845-1.648-7.69,27.463-25.266,38.998
		S762.735,228.229,762.735,228.229z" />
		<polygon fill="#809DAC" points="570.323,575.238 563.277,590.834 579.279,638.158 	" />
		<polygon fill="#404041" points="598.557,905.242 617.552,1116.557 575.605,1121.305 570.857,1041.37 	" />
		<path fill="#D6B18F" d="M588.268,1140.3l11.08,85.476c0,0,18.203,94.18,18.203,151.955c0,57.775-17.412,125.047-17.412,125.047
		s-18.995,51.443-29.283,60.941s-46.695,18.995-46.695,18.995s-15.829-2.374-11.08,5.54c4.749,7.914,13.454,9.497,13.454,9.497
		s-11.872,2.374-7.123,5.54s13.454,0,13.454,0s-8.706,9.497-3.957,10.289c4.749,0.792,31.658,0,45.904-7.914
		c14.246-7.914,37.989-11.872,42.738-26.909c4.749-15.037,22.16-68.855,36.406-78.353c14.246-9.497,12.663,2.374,15.037-13.454
		c2.374-15.829-12.663-26.909-15.829-39.572c-3.166-12.663-15.662-83.101-12.184-108.427c3.478-25.326,8.227-61.732,8.227-61.732
		s30.075,116.342,33.24,129.005c3.166,12.663,24.535,120.299,18.203,126.63c-6.331,6.331-15.037,26.117-20.577,24.535
		c-5.54-1.583-28.492-4.749-24.535,7.123c3.957,11.872,11.08,18.995,19.786,18.203c8.706-0.791,24.535,6.332,33.24-7.123
		c8.706-13.454,16.62-16.62,18.995-36.406c2.374-19.786-1.583-52.235,7.914-70.438c9.497-18.203,16.62-26.118,10.289-35.615
		c-6.332-9.497-26.909-6.331-31.658-16.62c-4.749-10.289-17.412-53.818-17.412-72.021s-3.931-123.751-3.931-123.751l-51.782,2.666
		l-23.431-106.849l-30.829,3.49L588.268,1140.3z" />
		<rect x="24.764" y="896.537" fill="#989788" width="522.35" height="90.752" />
		<path fill="#FFFFFF" d="M207.322,786.263l-18.995,65.953h283.506l-12.59-29.143l-66.89,16.2l49.648-28.692l10.965-2.038
		l-4.184-9.684c-8.206,5.253-51.608,33.069-55.011,35.826c-3.759,3.046-14.246,1.702-16.027,1.702c-1.781,0-2.283-2.321-1.4-3.405
		c-0.883,1.084-0.38,3.405,1.4,3.405c1.781,0,12.267,1.344,16.027-1.702c3.403-2.757,46.805-30.573,55.011-35.826l-5.441-12.596
		H207.322z" />
		<polygon fill="#A8B3C1" points="442.002,810.581 392.354,839.273 459.244,823.073 452.967,808.543 	" />
		<path fill="#808184" d="M506.664,757.273c-7.702,3.058-11.332,13.316-10.245,25.764c14.697-5.801,32.779-12.837,35.531-13.907
		C524.175,759.218,514.411,754.197,506.664,757.273z" />
		<path fill="#808184" d="M540.477,784.165c-2.277-5.735-5.224-10.824-8.527-15.036c-2.752,1.07-20.834,8.106-35.531,13.907
		c0.415,4.758,1.498,9.825,3.338,14.948l35.09-24.788l4.783,8.942l-33.864,28.292c8.146,12.918,19.672,20.02,28.549,16.496
		C545.354,822.545,548.113,803.4,540.477,784.165z" />
		<path fill="#5E6B69" d="M534.847,773.197l-35.09,24.788c0.245,0.683,0.474,1.365,0.746,2.05c1.495,3.766,3.281,7.252,5.264,10.397
		l33.864-28.292L534.847,773.197z" />
		<path fill="#DCB5B2" d="M377.745,836.387c1.781,0,12.267,1.344,16.027-1.702c3.759-3.046,56.349-36.682,56.349-36.682
		s5.881,3.759,10.183,1.583c4.302-2.176,14.789-7.519,16.767-8.706c1.979-1.187,55.27-21.902,55.27-21.902
		c-1.01-1.258-2.4-2.717-4.321-4.28c-5.777-4.702-7.531-2.178-7.531-2.178s-28.249,10.025-37.219,10.025
		s-26.909-6.332-32.185-10.025c-5.276-3.693-24.798-26.381-24.798-26.381s-3.693-7.914-11.344-4.749
		c-7.651,3.166-9.198,16.356-9.198,16.356s5.84,27.437,0,27.437c-5.84,0-27.164-3.693-27.164-3.693l-16.599,14.773
		c0,0-15.894,9.497-12.728,14.246c3.166,4.749,10.025,6.332,10.025,6.332s-7.387,4.749-0.528,8.97
		c6.859,4.221,11.08,6.332,11.08,6.332s-10.025,6.331-5.276,8.97c4.749,2.638,14.027,0,14.027,0s-1.169,0.751-2.236,1.871
		C375.462,834.066,375.965,836.387,377.745,836.387z" />
		<path fill="#CC9893" d="M532.342,768.977c0,0-53.292,20.715-55.271,21.902c-1.979,1.187-12.465,6.529-16.767,8.706
		c-4.302,2.176-10.183-1.583-10.183-1.583s-52.589,33.636-56.349,36.682c-3.759,3.046-14.246,1.702-16.027,1.702
		c-1.781,0-2.283-2.321-1.4-3.405c-1.263,1.326-2.382,3.17-1.238,4.922c2.11,3.232,14.992,2.704,14.992,2.704
		s0.831-0.493,2.255-1.335h0l0.004-0.002c7.775-4.598,34.028-20.076,49.613-28.672l0.031-0.018l0.002,0
		c6.338-3.495,10.91-5.851,11.72-5.851c3.166,0,8.935,0,8.935,0s6.366-3.693,12.17-7.914c5.804-4.221,60.018-23.618,60.018-23.618
		S534.371,771.501,532.342,768.977z" />
		<polygon fill="#DCB5B2" points="392.354,839.273 392.354,839.273 392.357,839.271 	" />
		<path fill="#DCB5B2" d="M441.971,810.599c0.011-0.006,0.022-0.012,0.033-0.018l-0.002,0L441.971,810.599z" />
		<path fill="#B0BFC8" d="M451.613,711.867c0,0,0.913-1.702-1.492-3.693c-2.63-2.176-4.311-1.055-4.311-1.055l-55.71,66.236
		l10.004,1.292L451.613,711.867z" />
		<rect x="85.951" y="987.288" fill="#959A8E" width="68.852" height="626.534" />
		<rect x="446.583" y="987.288" fill="#959A8E" width="68.852" height="626.534" />
		<rect x="85.951" y="987.288" fill="#58595B" width="68.852" height="25.986" />
		<rect x="445.545" y="987.288" fill="#58595B" width="68.852" height="25.986" />
		<polygon fill="#58595B" points="165.244,987.288 154.503,987.288 154.503,1613.822 165.244,1590.079 	" />
		<polygon fill="#58595B" points="446.583,987.288 436.325,987.288 436.325,1593.245 446.583,1613.822 	" />
		<rect x="159.874" y="1364.673" fill="#7A7C7F" width="281.58" height="49.069" />
		<polygon fill="#959A8E" points="441.454,1364.673 159.874,1364.673 164.622,1354.856 438.288,1354.856 	" />
		<path fill="#848D8C" d="M562.151,1553.827l-22.952,17.016c0,0,4.608-0.346,9.497,0c4.889,0.346,37.593,34.823,37.593,34.823
		s24.139-8.187,25.326-10.821c1.187-2.634,5.936-16.088,5.936-16.088s-22.556-20.182-34.428-24.93
		C571.252,1549.078,562.151,1553.827,562.151,1553.827z" />
		<path fill="#848D8C" d="M675.129,1556.4c0,0,1.781-5.343,6.925,6.133c5.144,11.476,9.102,24.535,9.102,24.535
		s12.267,4.749,19.786-1.979c7.519-6.727,16.224-28.096,16.224-28.096s-9.893-9.102-19.786-12.267c-9.893-3.166-19.786,0-19.786,0
		s3.487,4.649,0.754,5.886C685.615,1551.848,675.129,1556.4,675.129,1556.4z" />
		<rect x="339.138" y="618.741" fill="#A6A8AB" width="101.923" height="4.749" />
		<path fill="#58595B" d="M398.125,416.985c0,0,9.179,4.623,9.695,0.6c0.516-4.022,3.166-10.356,3.166-10.356s5.73-0.4,7.02-4.256
		c1.29-3.856,1.603-8.154,1.603-8.154l-53.494,35.663l8.267,9.843c0,0,6.943,0.541,8.023-3.218c1.079-3.759,2.464-9.893,2.464-9.893
		s8.462,4.551,10.859,0C398.125,422.662,398.125,416.985,398.125,416.985z" />
		<path fill="#B0BFC8" d="M358.212,440.325L358.212,440.325c-3.737,0-5.001-6.011-5.001-9.748l-1.793-14.06
		c0-3.737,3.058-6.795,6.795-6.795h0c3.737,0,6.795,3.058,6.795,6.795v17.013C365.007,437.267,361.949,440.325,358.212,440.325z" />
		<path fill="#B0BFC8" d="M378.66,432.173L378.66,432.173c-3.172,1.41-6.92-0.032-8.33-3.203l-8.375-18.842
		c-1.41-3.172,0.032-6.92,3.203-8.33l0,0c3.172-1.41,6.92,0.032,8.33,3.203l8.375,18.842
		C383.273,427.015,381.831,430.763,378.66,432.173z" />
		<path fill="#B0BFC8" d="M392.854,424.015L392.854,424.015c-2.913,1.887-6.84,1.047-8.727-1.866l-11.209-17.307
		c-1.887-2.913-1.047-6.84,1.866-8.727l0,0c2.913-1.887,6.84-1.047,8.727,1.866l11.209,17.307
		C396.607,418.201,395.767,422.128,392.854,424.015z" />
		<path fill="#B0BFC8" d="M407.257,414.944L407.257,414.944c-2.5,2.408-6.515,2.332-8.923-0.168l-14.304-14.851
		c-2.408-2.5-2.332-6.515,0.168-8.923l0,0c2.5-2.408,6.515-2.332,8.923,0.168l14.304,14.851
		C409.833,408.521,409.757,412.537,407.257,414.944z" />

		<ellipse transform="matrix(0.9976 -0.0692 0.0692 0.9976 -26.3769 29.2483)" fill="#B0BFC8" cx="408.715" cy="395.107" rx="9.297" ry="7.858" />

		<rect x="358.799" y="460.49" transform="matrix(0.7904 -0.6126 0.6126 0.7904 -208.2347 327.487)" fill="#A6A8AB" width="31.192" height="15.037" />
		<path fill="#577482" d="M528.779,765.553c-2.722-2.43-4.998-4.504-4.998-4.504l-7.885,3.05c0,0,6.288,1.85,8.399,5.543
		c0.417,0.729,0.677,1.452,0.833,2.145c3.474-1.354,5.955-2.32,6.834-2.661C530.957,767.826,529.822,766.485,528.779,765.553z" />
		<path fill="#435D7B" d="M524.609,776.906l10.238-3.708c0,0-1.273-1.982-2.887-4.072c-0.879,0.342-3.36,1.307-6.834,2.661
		C525.761,774.605,524.609,776.906,524.609,776.906z" />
		<path fill="#CC9893" d="M548.169,444.889c0,0,47.486-24.798,58.039-38.517c10.552-13.718,26.83-36.934,26.83-36.934
		s-11.08,42.733-9.419,60.149c1.661,17.416,15.301,48.542,15.301,48.542l-15.631,41.485c0,0-14.084,0.971-10.481-13.059
		c2.566-9.992,16.615-25.937,16.615-25.937l-32.686-47.905c0,0-8.904,1.919-29,8.893c-20.096,6.975-29.534,4.696-29.534,4.696
		L548.169,444.889z" />
		<path fill="#577482" d="M588.562,602.517c0,0,10.391-55.401,12.765-66.877c2.374-11.476,12.456-31.886,12.456-31.886
		s-3.125,6.406,1.509,11.628c4.634,5.221,8.27,3.52,8.27,3.52s9.422-0.497,15.358-8.579
		C644.857,502.241,588.562,602.517,588.562,602.517z" />
		<path fill="#8EA2AD" d="M588.562,670.185c0,0-0.294-30.075,5.642-43.529c5.936-13.454,65.624-77.211,65.624-77.211l0,0
		l-12.202-8.672l19.786-4.791l-10.067,9.212l6.901,11.815c0,0-40.363,40.02-47.882,49.689s-18.599,19.958-21.369,29.455
		C592.225,645.65,588.562,670.185,588.562,670.185z" />
		<polygon fill="#809DAC" points="728.089,721.892 575.188,810.872 572.565,840.64 728.089,730.642 	" />
		<path fill="#58595B" d="M553.513,313.496c0,0-43.559-5.019-47.599,0c-4.04,5.019-3.781,11.351-8.131,10.295
		c-4.35-1.055,4.684-8.983-3.527-10.295c-8.211-1.312-31.426-3.423-31.426-3.423s-1.442,1.692-2.64,4.593
		c0,0,29.549,1.211,30.341,3.322s2.374,3.693,1.583,5.54c-0.791,1.847-14.296,22.16-15.854,22.16c-1.554,0-8.351-6.07-12.331-8.703
		c8.908,12.731,15.106,14.243,15.106,14.243s10.436-20.05,18.748-20.577s5.18,16.356,19.937,20.577
		c14.757,4.221,29.531,7.387,31.641,0c2.111-7.387,11.943-26.381,11.943-26.381l73.489,3.145l2.593-4.743L553.513,313.496z
		 M543.293,351.228c-2.638,1.847-29.547-5.54-31.658-7.123c-2.111-1.583-5.276-17.412-5.013-19.786
		c0.264-2.374,2.902-6.859,5.013-7.914c0,0,43.048-1.055,43.001,7.914C554.617,328.097,545.931,349.382,543.293,351.228z" />
		<path fill="#A8B3C1" d="M511.635,316.405c-2.111,1.055-4.749,5.54-5.013,7.914c-0.264,2.374,2.902,18.203,5.013,19.786
		c2.11,1.583,29.019,8.97,31.658,7.123c2.638-1.847,11.324-23.132,11.344-26.909C554.683,315.35,511.635,316.405,511.635,316.405z" />
		<path fill="#60718C" d="M466.853,336.851c-1.979-1.385-4.946-8.112-5.936-12.861c-0.856-4.106,0.066-6.292,1.354-9.239
		c-1.183-0.056-1.884-0.085-1.884-0.085c-1.876,4.541-3.155,12.052,2.64,20.733c0.373,0.559,0.734,1.065,1.098,1.586
		c3.98,2.633,10.776,8.703,12.331,8.703c0.257,0,0.842-0.559,1.636-1.488C473.505,344.823,468.832,338.236,466.853,336.851z" />
		<path fill="#B0BFC8" d="M490.728,317.988c-0.67-1.786-21.938-2.928-28.456-3.237c-1.288,2.946-2.21,5.132-1.354,9.239
		c0.989,4.749,3.957,11.476,5.936,12.861c1.979,1.385,6.652,7.973,11.24,7.35c4.03-4.71,13.557-19.13,14.218-20.672
		C493.103,321.681,491.52,320.098,490.728,317.988z" />
		<path fill="#CC9893" d="M476.556,371.282c0,0,10.804,8.706,13.178,8.706c2.374,0,16.873-4.353,16.873-4.353
		s4.891-3.166,3.704-4.353s-0.285-4.353-3.704-3.561c-3.419,0.791-8.497,7.393-13.081,6.071s-9.728-6.196-9.728-6.196
		L476.556,371.282z" />
		<path fill="#E2836E" d="M485.777,395.451l4.749-5.932l5.144,2.966l7.519-2.966c0,0,20.577,3.553,19.39,5.932
		c-1.187,2.379-5.54,4.753-5.54,4.753s-1.187,4.185-2.77,5.258s-20.742,0-20.742,0l-2.605-7.733L485.777,395.451z" />
		<path fill="#B0BFC8" d="M460.986,590.834c0,0,3.29,8.121,6.455,6.538c3.166-1.583,9.114-8.97,9.114-8.97
		s31.018,117.133,43.137,123.465c12.119,6.331,27.42,15.301,27.42,15.301l-26.915,12.94c0,0-15.868-2.92-16.149-7.136
		c-0.281-4.216-12.337-25.59-12.337-25.59L460.986,590.834z" />
		<path fill="#E0E8ED" d="M486.964,527.296l33.643,84.85l24.188,74.923l-9.948,15.829h4.783l9.157-12.135v20.05v-24.271
		l12.044,20.577c0,0-15.647-24.798-12.044-27.437c3.602-2.638,0-9.497,0-9.497l8.933-67.05l-12.524,58.75L486.964,527.296z" />
		<path fill="#E0E8ED" d="M554.637,725.058l95.69-50.652c0,0,13.919-10.803,23.416-10.15c9.497,0.653,26.381,2.763,26.381,2.763
		s-25.326-2.638-24.798-7.914s46.87,11.08,46.87,11.08l15.39-3.166c0,0-38.517-3.152-45.376-8.963s-6.859-16.891-6.859-16.891
		s-6.859-60.098-3.693-65.927c3.166-5.83,10.553-26.398,14.774-27.985c4.221-1.588-13.718,13.987-13.718,13.987l-32.386,84.147
		c0,0-5.994,14.246-4.216,16.884c1.778,2.638,10.22-2.638,10.22-2.638l-109.219,67.536L554.637,725.058z" />
		<path fill="#577482" d="M570.857,1041.37l-19.786,182.031c0,0,31.69-21.628,36.423-22.29c4.732-0.662,9.641,7.583,9.641,7.583
		l-10.412-88.647l-11.117,1.258L570.857,1041.37z" />
		<polygon fill="#B0BFC8" points="581.817,807.014 551.071,1223.401 568.119,892.747 575.188,810.872 	" />
		<path fill="#8EA2AD" d="M408.321,769.126c0,0,5.914-11.884,8.164-14.616s19.84-6.99,19.84-6.99l-7.301-8.231
		c0,0-8.89,11.732-12.539,15.221c-2.353,2.25-8.717,10.864-8.717,10.864L408.321,769.126z" />

		<ellipse transform="matrix(0.5119 -0.859 0.859 0.5119 -390.6523 731.6548)" fill="#8EA2AD" cx="448.519" cy="709.596" rx="1.776" ry="3.409" />
		<path fill="#936562" d="M481.008,310.073c3.845-1.84,3.252-8.699,12.518-8.699c9.266,0,13.081,0,13.081,0l-2.557,4.35
		c0,0-12.864-0.619-16.294,0C484.325,306.343,481.008,310.073,481.008,310.073z" />
		<path fill="#936562" d="M520.205,295.043c0,0,8.97-8.442,15.301-3.693s18.007,22.147,18.007,22.147s-18.277-16.343-22.891-16.871
		c-4.614-0.528-7.994,2.638-7.994,2.638L520.205,295.043z" />
		<path fill="#577482" d="M463.909,335.563c0.11-0.124,0.236-0.314,0.357-0.507c-0.098-0.163-0.197-0.328-0.295-0.502
		C463.879,334.911,463.656,335.848,463.909,335.563z" />
		<path fill="#577482" d="M480.083,326.114c0,0,0.117-0.7-0.292-0.933c-0.408-0.233-0.758-0.292-0.758-0.292l0.7-1.925
		c0,0,0.292,0.292,0.642,0.292c0.35,0,0.583-0.35,0.583-0.35s1.75,1.983,2.391,1.925c0.642-0.058-0.758,0.583-0.758,0.583l1.4-0.642
		l0.175,0.583c0,0-1.458-0.058-1.05,0.233c0.408,0.292,1.633,0.058,1.633,0.058s0.642-0.175,0.816,0.35
		c0.175,0.525-0.117,1.604-0.117,1.604s0.436-0.309,0.591-0.669c0.007-0.293,0.022-0.524,0.051-0.294
		c0.012,0.098-0.009,0.198-0.051,0.294c-0.008,0.301-0.008,0.669-0.008,0.669s0.408,0.029,0.583-0.671
		c0.175-0.7-0.117-1.225-0.467-1.458c-0.35-0.233-1.283-0.525-1.283-0.525s-1.691-0.933-2.333-1.575
		c-0.642-0.642-0.758-1.925-1.516-2.275c-0.758-0.35-2.741,1.225-2.741,1.225l-1.05,0.991c0,0,0.048-0.816-0.764-0.991
		c-0.811-0.175-1.219,0.525-1.219,0.525s-0.642-0.992-1.808-1.691c-1.166-0.7-1.524-0.641-1.524-0.641s0.968-3.485,0.663-4.105
		c-0.059-0.12-0.117-0.32-0.182-0.539c-0.194-0.014-0.388-0.027-0.581-0.04c0.22,1.302-0.122,3.277-0.322,3.751
		c-0.27,0.641-1.383,1.225-1.383,1.225s-1.588-2.799-3.62-3.791c-2.032-0.992-3.938-0.467-3.938-0.467s-1.419,0.058-2.002,1.633
		c-0.583,1.575-0.35,1.225,0,1.283c0.35,0.058,0.117-0.991,0.875-1.691c0.758-0.7,2.148-1.166,3.727-0.7
		c1.58,0.467,2.692,1.633,3.39,2.391c0.698,0.758,0.99,1.341,0.99,1.341s-1.197,0.7-1.736,1.225
		c-0.539,0.525-2.113,1.458-2.055,1.925c0.058,0.467,0.272,0.816,0.544,0.467s0.363-0.525,0.726-0.583
		c0.363-0.058,0.7-0.058,0.7-0.058l0.548-0.233c0,0,0.446,0.583,0.918,0.583c0.471,0,0.403,0.343,0.933,0.434
		c0.53,0.091,0.997,0.149,1.376,0.499c0.379,0.35,0.86,0.991,0.86,0.991s-0.935,0.35-1,0.7c-0.065,0.35,0,0.846,0,0.846
		s-1.523-0.904-2.252-1.137c-0.729-0.233-1.568-0.467-1.878-0.408c-0.309,0.058-0.521,0.292-0.521,0.292s-0.936-0.408-2.258,0.058
		c-1.005,0.355-2.119,1.951-2.828,2.93c0.118,0.321,0.24,0.64,0.365,0.957c0.022-0.158,0.032-0.271,0.032-0.271
		s0.68-1.05,0.544-0.467c-0.136,0.583,0,1.225,0,1.225s0.098-1.283,0.331-1.75c0.233-0.467,0.836-1.108,1.555-1.429
		c0.719-0.321,2.258-0.379,2.258-0.379s0.408,0.758,0.747,0.816c0.339,0.058,3.903,0.875,3.903,0.875s-0.344,0.35,0,0.875
		s2.385,3.091,2.502,3.674c0.117,0.583,0.905,1.925,0.905,1.925s-2.409-2.992-3.406-2.896c-0.998,0.096-0.998,0.096-0.998,0.096
		s-1.4-0.309-2.333-0.096c-0.933,0.213-3.129,0.964-4.101,1.376c-0.079,0.034-0.174,0.061-0.265,0.09
		c0.099,0.186,0.197,0.362,0.296,0.538c0.04-0.05,0.068-0.084,0.068-0.084s-0.016,0.061-0.037,0.142
		c0.099,0.174,0.197,0.339,0.295,0.502c0.222-0.353,0.42-0.718,0.42-0.718s1.716-0.992,2.841-1.108
		c1.125-0.117,2.873,0.117,2.873,0.117s-0.115,1.866,0.643,2.275c0.451,0.243,0.256,3.557,0.169,6.537
		c1.881,1.565,4.015,2.82,6.134,2.532c2.061-2.409,5.557-7.355,8.573-11.822c-0.638-1.388-1.564-3.218-2.453-4.304
		C481.891,326.639,480.083,326.114,480.083,326.114z" />
		<path fill="#577482" d="M468.01,317.249c0.35,0.058,1.079-1.516,1.079-1.516s0.022-0.029,0.061-0.075
		c-0.189-0.012-0.379-0.024-0.565-0.035C467.914,316.443,467.78,317.211,468.01,317.249z" />
		<path fill="#577482" d="M523.529,315.879c0,0,1.298-1.685,2.252-0.933c0.359,0.283,0.507,0.939,0.537,1.681
		c0.238,0.008,0.47,0.015,0.711,0.024c-0.007-0.027-0.006-0.074-0.016-0.094c-0.306-0.619-0.491-3.069-2.469-2.019
		c-1.103,0.585-1.723,1.381-2.006,1.987c0.216,0.004,0.429,0.008,0.651,0.013C523.381,316.195,523.529,315.879,523.529,315.879z" />
		<path fill="#577482" d="M540.53,346.031c0,0,1.05-5.06,1.167-5.738c0.117-0.678,0-3.106,0-3.106l1.167-0.546c0,0,0.175,1.05,0,2.1
		c-0.175,1.05-1.866,4.257-1.4,4.374c0.467,0.117,1.225-2.337,1.225-2.337s1.05,1.696,0.758,0.908
		c-0.292-0.788-0.292-1.867-0.292-1.867s0.7,1.597,0.583,0.959c-0.117-0.638-0.408-1.78-0.408-1.78s0.376-1.949,0.421-2.648
		c0.045-0.7-0.305-1.283-0.305-1.283s0.817-1.341-0.233-1.341c-1.05,0-2.041,1.166-2.041,1.166s-1.691-4.258-3.266-6.182
		c-1.575-1.925-3.383-2.45-3.383-2.45s0.117-0.7-0.292-0.933c-0.408-0.233-0.758-0.292-0.758-0.292l0.7-1.925
		c0,0,0.292,0.292,0.642,0.292s0.583-0.35,0.583-0.35s1.75,1.983,2.391,1.925c0.642-0.058-0.758,0.583-0.758,0.583l1.4-0.642
		l0.175,0.583c0,0-1.458-0.058-1.05,0.233c0.408,0.292,1.633,0.058,1.633,0.058s0.641-0.175,0.816,0.35
		c0.175,0.525-0.117,1.604-0.117,1.604s0.436-0.309,0.591-0.669c0.007-0.293,0.022-0.524,0.051-0.294
		c0.012,0.098-0.009,0.198-0.051,0.294c-0.008,0.301-0.008,0.669-0.008,0.669s0.408,0.029,0.583-0.671
		c0.175-0.7-0.117-1.225-0.467-1.458c-0.35-0.233-1.283-0.525-1.283-0.525s-1.691-0.933-2.333-1.575
		c-0.642-0.642-0.758-1.925-1.516-2.275c-0.758-0.35-2.741,1.225-2.741,1.225l-1.05,0.991c0,0,0.048-0.816-0.764-0.991
		c-0.811-0.175-1.219,0.525-1.219,0.525s-0.642-0.992-1.808-1.691c-1.166-0.7-1.524-0.642-1.524-0.642s0.895-3.234,0.679-4.011
		c-0.241-0.009-0.473-0.016-0.711-0.024c0.051,1.232-0.221,2.701-0.39,3.102c-0.27,0.642-1.383,1.225-1.383,1.225
		s-1.588-2.8-3.62-3.791c-2.032-0.992-3.938-0.467-3.938-0.467s-1.419,0.058-2.002,1.633c-0.583,1.575-0.35,1.225,0,1.283
		c0.35,0.058,0.117-0.991,0.875-1.691c0.758-0.7,2.148-1.166,3.727-0.7c1.58,0.467,2.692,1.633,3.39,2.391
		c0.698,0.758,0.99,1.341,0.99,1.341s-1.197,0.7-1.736,1.225c-0.539,0.525-2.113,1.458-2.055,1.925
		c0.058,0.467,0.272,0.816,0.544,0.467c0.272-0.35,0.363-0.525,0.726-0.583c0.363-0.058,0.7-0.058,0.7-0.058l0.548-0.233
		c0,0,0.446,0.583,0.918,0.583c0.471,0,0.403,0.343,0.933,0.434c0.53,0.091,0.997,0.149,1.376,0.499
		c0.379,0.35,0.86,0.991,0.86,0.991s-0.935,0.35-1,0.7s0,0.846,0,0.846s-1.523-0.904-2.252-1.137
		c-0.729-0.233-1.568-0.467-1.878-0.408c-0.309,0.058-0.521,0.292-0.521,0.292s-0.936-0.408-2.258,0.058
		c-1.322,0.467-2.838,3.091-3.363,3.616c-0.525,0.525-0.758,0.933-1.4,0.933c-0.641,0-1.166,0.35-0.758,0.467
		c0.408,0.117,0.583,0.292,1.167,0c0.583-0.292,1.341-0.849,1.341-0.849s-0.272,1.227,0.097,1.009
		c0.369-0.218,0.486-1.559,0.486-1.559s0.68-1.05,0.544-0.467c-0.136,0.583,0,1.225,0,1.225s0.098-1.283,0.331-1.75
		c0.233-0.467,0.836-1.108,1.555-1.429c0.719-0.321,2.258-0.379,2.258-0.379s0.408,0.758,0.747,0.816
		c0.339,0.058,3.903,0.875,3.903,0.875s-0.344,0.35,0,0.875c0.344,0.525,2.385,3.091,2.502,3.674
		c0.117,0.583,0.905,1.925,0.905,1.925s-2.409-2.992-3.406-2.896c-0.998,0.096-0.998,0.096-0.998,0.096s-1.4-0.309-2.333-0.096
		c-0.933,0.213-3.129,0.964-4.101,1.376c-0.973,0.412-2.956,0.47-2.956,0.47l0.774,0.043c0.321,0.011,0.568,0.031,0.568,0.031
		l-0.568-0.031c-0.666-0.023-1.652-0.008-1.415,0.307c0.35,0.467,2.87,0.117,2.87,0.117s-0.887,2.07-0.245,1.093
		c0.642-0.977,1.072-1.486,1.072-1.486s-0.409,1.501-0.099,1.151c0.31-0.35,0.777-1.225,0.777-1.225s1.716-0.992,2.841-1.108
		c1.125-0.117,2.873,0.117,2.873,0.117s-0.115,1.866,0.643,2.275c0.758,0.408-0.312,9.509,0.381,11.081
		c0.175,0.398,0.475,0.97,0.824,1.604c3.888,1.013,7.983,1.961,11.344,2.553c0.347-0.361,0.631-0.658,0.631-0.658
		s0.075,0.305-0.011,0.763c0.845,0.141,1.634,0.257,2.355,0.343c0.02-0.201,0.055-0.393,0.046-0.611
		C540.997,349.356,540.53,346.031,540.53,346.031z" />
		<path fill="#577482" d="M522.45,317.395c0.194,0.032,0.501-0.434,0.739-0.858c-0.222-0.005-0.434-0.009-0.651-0.013
		C522.313,317.005,522.295,317.369,522.45,317.395z" />
	</g>
</svg>