<?xml version="1.0" encoding="iso-8859-1"?>
<!-- Generator: Adobe Illustrator 19.0.0, SVG Export Plug-In . SVG Version: 6.00 Build 0)  -->
<svg version="1.1" id="Layer_1" xmlns="http://www.w3.org/2000/svg" xmlns:xlink="http://www.w3.org/1999/xlink" x="0px" y="0px"
	 viewBox="0 0 512 512" style="enable-background:new 0 0 512 512;" xml:space="preserve">
<g>
	<g>
		<path d="M444.542,250.295h-82.645v94.981H223.266l25.164-25.164l-58.916-58.916L64.112,386.598L189.514,512l58.915-58.916
			l-25.164-25.164h221.277V250.295z M428.384,411.762H184.257l41.322,41.322l-36.064,36.064L86.963,386.598l102.551-102.551
			l36.064,36.064l-41.322,41.322h193.8v-94.981h50.328V411.762z"/>
	</g>
</g>
<g>
	<g>
		
			<rect x="145.811" y="371.839" transform="matrix(0.7071 -0.7071 0.7071 0.7071 -253.4735 232.4792)" width="16.158" height="100.741"/>
	</g>
</g>
<g>
	<g>
		<path d="M322.486,0l-58.916,58.916l25.164,25.164H67.458v177.626h82.645v-94.981h138.632l-25.164,25.164l58.916,58.915
			l125.402-125.402L322.486,0z M322.486,227.952l-36.064-36.064l41.322-41.322h-193.8v94.981H83.616V100.238h244.128l-41.322-41.322
			l36.064-36.064l102.551,102.551L322.486,227.952z"/>
	</g>
</g>
<g>
	<g>
		
			<rect x="350.018" y="39.412" transform="matrix(0.7071 -0.7071 0.7071 0.7071 41.3975 279.5088)" width="16.158" height="100.741"/>
	</g>
</g>
<g>
</g>
<g>
</g>
<g>
</g>
<g>
</g>
<g>
</g>
<g>
</g>
<g>
</g>
<g>
</g>
<g>
</g>
<g>
</g>
<g>
</g>
<g>
</g>
<g>
</g>
<g>
</g>
<g>
</g>
</svg>
